<svg width="18" height="18" viewBox="0 0 18 18" fill="none" xmlns="http://www.w3.org/2000/svg">
<path d="M5.66667 4.83333H12.3333M16.5 4.83333H12.3333H16.5ZM1.5 4.83333H5.66667H1.5ZM5.66667 4.83333V2C5.66667 1.86739 5.71934 1.74021 5.81311 1.64645C5.90688 1.55268 6.03406 1.5 6.16667 1.5H11.8333C11.9659 1.5 12.0931 1.55268 12.1869 1.64645C12.2807 1.74021 12.3333 1.86739 12.3333 2V4.83333H5.66667Z" stroke="#252B5C" stroke-width="1.6" stroke-linecap="round" stroke-linejoin="round"/>
<path d="M14.8333 5V16C14.8333 16.1326 14.7806 16.2598 14.6868 16.3536C14.5931 16.4473 12.6325 16.5 12.4999 16.5H5.99994C5.86733 16.5 3.40684 16.4473 3.31307 16.3536C3.2193 16.2598 3.16663 16.1326 3.16663 16V5" stroke="#252B5C" stroke-width="1.6" stroke-linecap="round" stroke-linejoin="round"/>
</svg>
