<svg width="25" height="25" viewBox="0 0 25 25" fill="none" xmlns="http://www.w3.org/2000/svg">
<path fill-rule="evenodd" clip-rule="evenodd" d="M12.4992 4.96719L12.4677 4.96694C12.0209 4.96694 11.5876 5.11467 11.2364 5.38558L11.2363 5.38563L5.63315 9.70647L5.63281 9.70673C5.15779 10.0726 4.87699 10.6288 4.863 11.2193L5.59797 17.0005C5.67063 17.572 5.69743 17.7552 5.7666 17.9549C5.83785 18.1607 5.90017 18.2689 6.11143 18.6211C6.36188 19.0387 6.50635 19.1819 6.74913 19.4226L6.75854 19.4319C6.92874 19.6007 7.2621 19.7669 7.69796 19.8882C7.95276 19.9591 8.20034 20.0031 8.39997 20.0268V18C8.39997 17.4106 8.56361 16.5621 9.10151 15.8151C9.69815 14.9864 10.6785 14.4 12 14.4H13C13.5893 14.4 14.4378 14.5636 15.1849 15.1015C16.0135 15.6981 16.6 16.6785 16.6 18V20.0266C16.7993 20.0029 17.0463 19.9589 17.3005 19.8882C17.7363 19.7669 18.0697 19.6007 18.2399 19.4319L18.2493 19.4226C18.4921 19.1819 18.6365 19.0387 18.887 18.6211C19.0983 18.2689 19.1606 18.1607 19.2318 17.9549C19.301 17.7552 19.3278 17.572 19.4005 17.0005L20.1354 11.2193C20.1214 10.6288 19.8406 10.0726 19.3656 9.70673L19.3653 9.70647L13.7621 5.38563L13.7621 5.38558C13.4108 5.11467 12.9776 4.96694 12.5307 4.96694L12.4992 4.96719V4.11861L14.7393 4.11865L20.342 8.43917L20.3423 8.43944C21.2206 9.11608 21.736 10.1589 21.736 11.2657C21.736 11.2994 21.7338 11.3331 21.7296 11.3666L20.9877 17.2023L20.9801 17.2621C20.9177 17.7535 20.8732 18.1046 20.7438 18.4784C20.6145 18.8517 20.4723 19.0887 20.2746 19.4183L20.2591 19.444C19.9089 20.0281 19.6607 20.2764 19.3664 20.5681C18.9062 21.0244 18.2574 21.2827 17.7294 21.4296C17.2717 21.557 16.813 21.6254 16.4651 21.6438C16.4643 21.6458 16.4634 21.6478 16.4625 21.6498H15V18.5C15 18.0353 15 17.803 14.9615 17.6098C14.8037 16.8164 14.1835 16.1962 13.3901 16.0384C13.1969 16 12.9646 16 12.5 16C12.0353 16 11.803 16 11.6098 16.0384C10.8164 16.1962 10.1962 16.8164 10.0384 17.6098C9.99997 17.803 9.99997 18.0353 9.99997 18.5V21.6498H8.53743C8.53656 21.6478 8.5357 21.6459 8.53484 21.6439C8.18681 21.6256 7.72742 21.5572 7.269 21.4296C6.741 21.2827 6.09223 21.0244 5.63203 20.5681C5.33776 20.2764 5.08957 20.0281 4.73928 19.444L4.72386 19.4183C4.52611 19.0887 4.3839 18.8517 4.25467 18.4784C4.12523 18.1046 4.08069 17.7535 4.01834 17.2621L4.01074 17.2023L3.26884 11.3666C3.26458 11.3331 3.26245 11.2994 3.26245 11.2657C3.26245 10.1589 3.77787 9.11608 4.65609 8.43944L4.65644 8.43917L10.2592 4.11865L12.4992 4.11861V4.96719ZM12.4992 4.11858L10.2592 4.11861C10.8914 3.63102 11.6686 3.36694 12.4677 3.36694L12.4992 3.36708V4.11858ZM12.4992 4.11858L14.7392 4.11861C14.107 3.63102 13.3299 3.36694 12.5307 3.36694L12.4992 3.36708V4.11858Z" fill="#252B5C"/>
</svg>
