<svg width="18" height="18" viewBox="0 0 18 18" fill="none" xmlns="http://www.w3.org/2000/svg">
<path d="M17.5547 7.14832C17.5353 7.06095 17.4974 6.97877 17.4434 6.90733C17.3895 6.8359 17.3209 6.77687 17.2422 6.73425L15.3828 5.703C15.2832 5.50089 15.171 5.3052 15.0469 5.11707L15.086 2.99207C15.0867 2.90294 15.069 2.81462 15.0341 2.73262C14.9991 2.65062 14.9476 2.57671 14.8828 2.5155C13.957 1.6761 12.8621 1.04475 11.6719 0.663941C11.5864 0.637289 11.4963 0.629078 11.4074 0.639852C11.3185 0.650626 11.2329 0.680139 11.1563 0.726441L9.33596 1.82019C9.10939 1.81238 8.89064 1.81238 8.66408 1.82019L6.84377 0.726441C6.76714 0.680139 6.68155 0.650626 6.59266 0.639852C6.50378 0.629078 6.41362 0.637289 6.32814 0.663941C5.13632 1.04504 4.04098 1.67932 3.11721 2.52332C3.05185 2.58242 2.9999 2.65483 2.96487 2.73569C2.92983 2.81654 2.91251 2.90396 2.91408 2.99207L2.95314 5.11707C2.82814 5.30457 2.71877 5.49988 2.60939 5.703L0.750019 6.73425C0.672457 6.77732 0.605092 6.8366 0.552512 6.90805C0.499933 6.97951 0.463375 7.06146 0.445331 7.14832C0.179681 8.3684 0.179681 9.63136 0.445331 10.8514C0.464737 10.9388 0.50268 11.021 0.556594 11.0924C0.610507 11.1639 0.679134 11.2229 0.757831 11.2655L2.61721 12.2968C2.71688 12.4989 2.82908 12.6946 2.95314 12.8827L2.91408 15.0077C2.91337 15.0968 2.93104 15.1851 2.96599 15.2671C3.00093 15.3491 3.05241 15.423 3.11721 15.4843C4.04302 16.3237 5.13789 16.955 6.32814 17.3358C6.41362 17.3625 6.50378 17.3707 6.59266 17.3599C6.68155 17.3491 6.76714 17.3196 6.84377 17.2733L8.66408 16.1796H9.33596L11.1641 17.2733C11.2591 17.3358 11.3707 17.3685 11.4844 17.3671C11.5479 17.3643 11.6109 17.3538 11.6719 17.3358C12.8637 16.9547 13.9591 16.3204 14.8828 15.4764C14.9482 15.4173 15.0001 15.3449 15.0352 15.2641C15.0702 15.1832 15.0875 15.0958 15.086 15.0077L15.0469 12.8827C15.1719 12.6952 15.2813 12.4999 15.3906 12.2968L17.25 11.2655C17.3276 11.2224 17.3949 11.1632 17.4475 11.0917C17.5001 11.0203 17.5367 10.9383 17.5547 10.8514C17.8204 9.63136 17.8204 8.3684 17.5547 7.14832ZM16.3828 10.3124L14.6094 11.2968C14.4969 11.3621 14.407 11.4602 14.3516 11.578C14.2231 11.8443 14.0742 12.1002 13.9063 12.3436C13.8349 12.4528 13.7969 12.5804 13.7969 12.7108L13.8281 14.7343C13.1555 15.307 12.3855 15.7542 11.5547 16.0546L9.81252 15.0077C9.71529 14.9511 9.60472 14.9214 9.49221 14.9218H9.44533C9.14892 14.9452 8.85112 14.9452 8.55471 14.9218C8.42662 14.9148 8.2992 14.9446 8.18752 15.0077L6.44533 16.0546C5.61555 15.7556 4.8457 15.3112 4.17189 14.7421L4.20314 12.7108C4.2031 12.5804 4.16509 12.4528 4.09377 12.3436C3.92873 12.0984 3.77997 11.8427 3.64846 11.578C3.59077 11.4618 3.50139 11.3643 3.39064 11.2968L1.61721 10.3124C1.46091 9.44436 1.46091 8.5554 1.61721 7.68738L3.39064 6.703C3.50315 6.63761 3.59308 6.53951 3.64846 6.42175C3.77699 6.15548 3.92587 5.89951 4.09377 5.65613C4.16509 5.54694 4.2031 5.41936 4.20314 5.28894L4.17189 3.2655C4.84451 2.69279 5.61456 2.24558 6.44533 1.94519L8.18752 2.99207C8.29887 3.05602 8.42654 3.0859 8.55471 3.078C8.85112 3.05456 9.14892 3.05456 9.44533 3.078C9.57342 3.085 9.70084 3.05518 9.81252 2.99207L11.5547 1.94519C12.3845 2.24413 13.1543 2.68858 13.8281 3.25769L13.7969 5.28894C13.7969 5.41936 13.8349 5.54694 13.9063 5.65613C14.0713 5.90131 14.2201 6.15707 14.3516 6.42175C14.4093 6.53795 14.4986 6.63546 14.6094 6.703L16.3828 7.68738C16.5391 8.5554 16.5391 9.44436 16.3828 10.3124ZM9.00002 4.62488C8.13473 4.62488 7.28886 4.88147 6.5694 5.3622C5.84993 5.84293 5.28918 6.52621 4.95805 7.32564C4.62691 8.12507 4.54027 9.00473 4.70908 9.8534C4.87789 10.7021 5.29457 11.4816 5.90643 12.0935C6.51828 12.7053 7.29783 13.122 8.1465 13.2908C8.99517 13.4596 9.87483 13.373 10.6743 13.0419C11.4737 12.7107 12.157 12.15 12.6377 11.4305C13.1184 10.711 13.375 9.86517 13.375 8.99988C13.375 7.83956 12.9141 6.72676 12.0936 5.90629C11.2731 5.08581 10.1603 4.62488 9.00002 4.62488ZM9.00002 12.1249C8.38195 12.1249 7.77777 11.9416 7.26386 11.5982C6.74996 11.2548 6.34942 10.7668 6.1129 10.1958C5.87637 9.62475 5.81449 8.99641 5.93506 8.39022C6.05564 7.78403 6.35327 7.22721 6.79031 6.79017C7.22735 6.35313 7.78417 6.0555 8.39036 5.93492C8.99655 5.81435 9.62489 5.87623 10.1959 6.11275C10.7669 6.34928 11.255 6.74982 11.5984 7.26372C11.9417 7.77763 12.125 8.38181 12.125 8.99988C12.125 9.82868 11.7958 10.6235 11.2097 11.2096C10.6237 11.7956 9.82882 12.1249 9.00002 12.1249Z" fill="#234F68"/>
</svg>
