<svg width="40" height="40" viewBox="0 0 40 40" fill="none" xmlns="http://www.w3.org/2000/svg">
<path d="M14.3117 13.7267L18.6417 5.00665C18.7678 4.75429 18.9616 4.54204 19.2016 4.39368C19.4415 4.24533 19.718 4.16675 20.0001 4.16675C20.2822 4.16675 20.5587 4.24533 20.7986 4.39368C21.0385 4.54204 21.2324 4.75429 21.3584 5.00665L25.6884 13.7267L35.3684 15.1333C35.6476 15.172 35.9103 15.2885 36.1265 15.4693C36.3427 15.6502 36.5037 15.8882 36.5911 16.1562C36.6786 16.4242 36.6889 16.7113 36.6209 16.9849C36.5529 17.2585 36.4094 17.5074 36.2067 17.7033L29.2034 24.4867L30.8567 34.07C31.0684 35.3 29.7684 36.2367 28.6567 35.6567L20.0001 31.13L11.3417 35.6567C10.2317 36.2383 8.93174 35.3 9.1434 34.0683L10.7967 24.485L3.7934 17.7017C3.59171 17.5056 3.44907 17.2569 3.38168 16.9838C3.31429 16.7108 3.32486 16.4243 3.41219 16.1569C3.49951 15.8895 3.6601 15.652 3.87569 15.4714C4.09127 15.2907 4.35321 15.1742 4.63174 15.135L14.3117 13.7267Z" fill="url(#paint0_linear_123_609)" stroke="#F0A633" stroke-linecap="round" stroke-linejoin="round"/>
<defs>
<linearGradient id="paint0_linear_123_609" x1="20.0016" y1="4.16675" x2="20.0016" y2="35.8334" gradientUnits="userSpaceOnUse">
<stop stop-color="#FFFED0"/>
<stop offset="1" stop-color="#F7AB15"/>
</linearGradient>
</defs>
</svg>
