<svg width="19" height="19" viewBox="0 0 19 19" fill="none" xmlns="http://www.w3.org/2000/svg">
<path fill-rule="evenodd" clip-rule="evenodd" d="M12 18.599V15.5C12 15.0353 12 14.803 11.9616 14.6098C11.8038 13.8164 11.1836 13.1962 10.3902 13.0384C10.197 13 9.96467 13 9.50002 13C9.03536 13 8.80303 13 8.60983 13.0384C7.81645 13.1962 7.19626 13.8164 7.03844 14.6098C7.00002 14.803 7.00002 15.0353 7.00002 15.5V18.599H5.71691C5.3629 18.599 4.82232 18.5317 4.28246 18.3815C3.75733 18.2353 3.11841 17.98 2.66729 17.5327C2.37444 17.2423 2.12948 16.9974 1.78221 16.4184L1.76748 16.3938C1.56932 16.0635 1.42948 15.8304 1.30197 15.4621C1.17427 15.0933 1.13034 14.7471 1.06768 14.2534L1.06767 14.2533L1.06767 14.2533L1.06039 14.196L0.318489 8.3603C0.314501 8.32893 0.3125 8.29733 0.3125 8.26571C0.3125 7.17456 0.82066 6.14631 1.68668 5.47908L1.687 5.47883L7.28976 1.15829L9.49926 1.15825V1.375H9.49927V1.15825L11.7088 1.15829L17.3115 5.47883L17.3119 5.47908C18.1779 6.14631 18.686 7.17456 18.686 8.26571C18.686 8.29733 18.684 8.32893 18.68 8.3603L17.9381 14.196L17.9309 14.2533L17.9309 14.2533C17.8682 14.7471 17.8243 15.0933 17.6966 15.4621C17.569 15.8304 17.4292 16.0635 17.231 16.3938L17.2163 16.4184C16.869 16.9974 16.6241 17.2423 16.3312 17.5327C15.8801 17.98 15.2412 18.2353 14.7161 18.3815C14.1762 18.5317 13.6356 18.599 13.2816 18.599H12ZM7.28982 1.15825L9.49926 1.15823V0.417131L9.46774 0.416992C8.67961 0.416992 7.91323 0.677437 7.28982 1.15825ZM11.7087 1.15825L9.49927 1.15823V0.417131L9.53079 0.416992C10.3189 0.416992 11.0853 0.677437 11.7087 1.15825Z" fill="url(#paint0_radial_46_3723)"/>
<defs>
<radialGradient id="paint0_radial_46_3723" cx="0" cy="0" r="1" gradientUnits="userSpaceOnUse" gradientTransform="translate(0.312501 -2.54288) rotate(54.1508) scale(26.0831 26.1703)">
<stop offset="0.046875" stop-color="#234F68"/>
<stop offset="0.983052" stop-color="#234F68" stop-opacity="0.83"/>
</radialGradient>
</defs>
</svg>
